# Blender 4.0.2
# www.blender.org
mtllib my_Cornell_Box_cubes.mtl
o Cube
v 0.683014 -1.000000 1.183012
v 0.683014 0.000000 1.183012
v -0.183012 -1.000000 0.683014
v -0.183012 0.000000 0.683014
v 1.183012 -1.000000 0.316986
v 1.183012 0.000000 0.316986
v 0.316986 -1.000000 -0.183012
v 0.316986 0.000000 -0.183012
vn -0.5000 -0.0000 0.8660
vn -0.8660 -0.0000 -0.5000
vn 0.5000 -0.0000 -0.8660
vn 0.8660 -0.0000 0.5000
vn -0.0000 -1.0000 -0.0000
vn -0.0000 1.0000 -0.0000
vt 0.375000 0.000000
vt 0.625000 0.000000
vt 0.625000 0.250000
vt 0.375000 0.250000
vt 0.625000 0.500000
vt 0.375000 0.500000
vt 0.625000 0.750000
vt 0.375000 0.750000
vt 0.625000 1.000000
vt 0.375000 1.000000
vt 0.125000 0.500000
vt 0.125000 0.750000
vt 0.875000 0.500000
vt 0.875000 0.750000
s 0
usemtl white
f 1/1/1 2/2/1 4/3/1 3/4/1
f 3/4/2 4/3/2 8/5/2 7/6/2
f 7/6/3 8/5/3 6/7/3 5/8/3
f 5/8/4 6/7/4 2/9/4 1/10/4
f 3/11/5 7/6/5 5/8/5 1/12/5
f 8/5/6 4/13/6 2/14/6 6/7/6
o Cube.001
v -1.500000 -1.125000 0.000000
v -1.500000 1.125000 0.000000
v -1.500000 -1.125000 -1.500000
v -1.500000 1.125000 -1.500000
v 0.000000 -1.125000 0.000000
v 0.000000 1.125000 0.000000
v 0.000000 -1.125000 -1.500000
v 0.000000 1.125000 -1.500000
vn -1.0000 -0.0000 -0.0000
vn -0.0000 -0.0000 -1.0000
vn 1.0000 -0.0000 -0.0000
vn -0.0000 -0.0000 1.0000
vn -0.0000 -1.0000 -0.0000
vn -0.0000 1.0000 -0.0000
vt 0.375000 0.000000
vt 0.625000 0.000000
vt 0.625000 0.250000
vt 0.375000 0.250000
vt 0.625000 0.500000
vt 0.375000 0.500000
vt 0.625000 0.750000
vt 0.375000 0.750000
vt 0.625000 1.000000
vt 0.375000 1.000000
vt 0.125000 0.500000
vt 0.125000 0.750000
vt 0.875000 0.500000
vt 0.875000 0.750000
s 0
usemtl white
f 9/15/7 10/16/7 12/17/7 11/18/7
f 11/18/8 12/17/8 16/19/8 15/20/8
f 15/20/9 16/19/9 14/21/9 13/22/9
f 13/22/10 14/21/10 10/23/10 9/24/10
f 11/25/11 15/20/11 13/22/11 9/26/11
f 16/19/12 12/27/12 10/28/12 14/21/12
o Plane
v -2.000000 3.000000 2.000000
v 2.000000 3.000000 2.000000
v -2.000000 3.000000 -2.000000
v 2.000000 3.000000 -2.000000
vn -0.0000 1.0000 -0.0000
vt 0.000000 0.000000
vt 1.000000 0.000000
vt 1.000000 1.000000
vt 0.000000 1.000000
s 0
usemtl white
f 17/29/13 18/30/13 20/31/13 19/32/13
o Plane.001
v -2.000000 -1.000000 2.000000
v 2.000000 -1.000000 2.000000
v -2.000000 -1.000000 -2.000000
v 2.000000 -1.000000 -2.000000
vn -0.0000 1.0000 -0.0000
vt 0.000000 0.000000
vt 1.000000 0.000000
vt 1.000000 1.000000
vt 0.000000 1.000000
s 0
usemtl white
f 21/33/14 22/34/14 24/35/14 23/36/14
o Plane.002
v -2.000000 -1.000000 -2.000007
v 2.000000 -1.000000 -2.000007
v -2.000000 3.000000 -1.999993
v 2.000000 3.000000 -1.999993
vn -0.0000 -0.0000 1.0000
vt 0.000000 0.000000
vt 1.000000 0.000000
vt 1.000000 1.000000
vt 0.000000 1.000000
s 0
usemtl white
f 25/37/15 26/38/15 28/39/15 27/40/15
o Plane.003
v 2.000007 3.000000 2.000000
v 1.999993 -1.000000 2.000000
v 2.000007 3.000000 -2.000000
v 1.999993 -1.000000 -2.000000
vn 1.0000 -0.0000 -0.0000
vt 0.000000 0.000000
vt 1.000000 0.000000
vt 1.000000 1.000000
vt 0.000000 1.000000
s 0
usemtl green
f 29/41/16 30/42/16 32/43/16 31/44/16
o Plane.004
v -1.999993 3.000000 2.000000
v -2.000007 -1.000000 2.000000
v -1.999993 3.000000 -2.000000
v -2.000007 -1.000000 -2.000000
vn 1.0000 -0.0000 -0.0000
vt 0.000000 0.000000
vt 1.000000 0.000000
vt 1.000000 1.000000
vt 0.000000 1.000000
s 0
usemtl red
f 33/45/17 34/46/17 36/47/17 35/48/17
o Plane.005
v -0.500000 3.000000 0.500000
v 0.500000 3.000000 0.500000
v -0.500000 3.000000 -0.500000
v 0.500000 3.000000 -0.500000
vn -0.0000 1.0000 -0.0000
vt 0.000000 0.000000
vt 1.000000 0.000000
vt 1.000000 1.000000
vt 0.000000 1.000000
s 0
usemtl light
f 37/49/18 38/50/18 40/51/18 39/52/18
