# Blender 4.0.2
# www.blender.org
mtllib my_Cornell_Box_portals_x2.mtl
o Plane
v -2.000000 3.000000 2.000000
v 2.000000 3.000000 2.000000
v -2.000000 3.000000 -2.000000
v 2.000000 3.000000 -2.000000
vn -0.0000 1.0000 -0.0000
vt 0.000000 0.000000
vt 1.000000 0.000000
vt 1.000000 1.000000
vt 0.000000 1.000000
s 0
usemtl white
f 1/1/1 2/2/1 4/3/1 3/4/1
o Plane.001
v -2.000000 -1.000000 2.000000
v 2.000000 -1.000000 2.000000
v -2.000000 -1.000000 -2.000000
v 2.000000 -1.000000 -2.000000
vn -0.0000 1.0000 -0.0000
vt 0.000000 0.000000
vt 1.000000 0.000000
vt 1.000000 1.000000
vt 0.000000 1.000000
s 0
usemtl white
f 5/5/2 6/6/2 8/7/2 7/8/2
o Plane.002
v -2.000000 -1.000000 -2.000007
v 2.000000 -1.000000 -2.000007
v -2.000000 3.000000 -1.999993
v 2.000000 3.000000 -1.999993
vn -0.0000 -0.0000 1.0000
vt 0.000000 0.000000
vt 1.000000 0.000000
vt 1.000000 1.000000
vt 0.000000 1.000000
s 0
usemtl white
f 9/9/3 10/10/3 12/11/3 11/12/3
o Plane.003
v 2.000007 3.000000 2.000000
v 1.999993 -1.000000 2.000000
v 2.000007 3.000000 -2.000000
v 1.999993 -1.000000 -2.000000
vn 1.0000 -0.0000 -0.0000
vt 0.000000 0.000000
vt 1.000000 0.000000
vt 1.000000 1.000000
vt 0.000000 1.000000
s 0
usemtl green
f 13/13/4 14/14/4 16/15/4 15/16/4
o Plane.004
v -1.999993 3.000000 2.000000
v -2.000007 -1.000000 2.000000
v -1.999993 3.000000 -2.000000
v -2.000007 -1.000000 -2.000000
vn 1.0000 -0.0000 -0.0000
vt 0.000000 0.000000
vt 1.000000 0.000000
vt 1.000000 1.000000
vt 0.000000 1.000000
s 0
usemtl red
f 17/17/5 18/18/5 20/19/5 19/20/5
o Plane.005
v -0.500000 2.990000 0.500000
v 0.500000 2.990000 0.500000
v -0.500000 2.990000 -0.500000
v 0.500000 2.990000 -0.500000
vn -0.0000 1.0000 -0.0000
vt 0.000000 0.000000
vt 1.000000 0.000000
vt 1.000000 1.000000
vt 0.000000 1.000000
s 0
usemtl light
f 21/21/6 22/22/6 24/23/6 23/24/6
o Portal_wy_1
v -1.661095 2.369624 2.723447
v -1.661095 2.369624 -0.823135
v 1.885487 2.369624 -0.823135
vn -0.0000 -1.0000 -0.0000
vt 0.000000 0.000000
s 0
usemtl green
f 26/25/7 27/25/7 25/25/7
o Portal_we_1
v -1.287775 0.561962 2.569433
v -1.287775 -0.852252 1.155219
v 0.712225 -0.852252 1.155219
vn -0.0000 -0.7071 0.7071
vt 0.000000 0.000000
s 0
usemtl green
f 29/26/8 30/26/8 28/26/8
o Portal_wy_2
v -1.351576 -1.692946 -0.353833
v -1.351576 1.231166 2.570279
v 2.783744 1.231166 2.570279
vn -0.0000 0.7071 -0.7071
vt 0.000000 0.000000
s 0
usemtl green
f 32/27/9 33/27/9 31/27/9
o Portal_we_2
v 1.125807 0.854855 -0.833294
v 1.125807 -1.145145 -0.833293
v 2.540021 -1.145145 -2.247507
vn 0.7071 -0.0000 0.7071
vt 0.000000 0.000000
s 0
usemtl green
f 35/28/10 36/28/10 34/28/10
